<svg width="70" height="40" viewBox="0 0 70 40" fill="none" xmlns="http://www.w3.org/2000/svg">
<path d="M9.88313 32.856H12.2671V32H8.83513V36.936H9.45913C10.7391 36.936 11.7471 36.896 12.8591 36.696L12.7551 35.824C11.8031 35.984 10.9311 36.04 9.88313 36.056V32.856ZM15.3871 34.04H14.3151V31.32H13.2591V38.704H14.3151V34.912H15.3871V34.04ZM20.9545 31.312V38.704H22.0105V31.312H20.9545ZM18.0505 31.832C16.9385 31.832 16.1145 32.84 16.1145 34.456C16.1145 36.08 16.9385 37.096 18.0505 37.096C19.1625 37.096 19.9865 36.08 19.9865 34.456C19.9865 32.84 19.1625 31.832 18.0505 31.832ZM18.0505 32.784C18.5945 32.784 18.9705 33.368 18.9705 34.456C18.9705 35.552 18.5945 36.136 18.0505 36.136C17.5065 36.136 17.1305 35.552 17.1305 34.456C17.1305 33.368 17.5065 32.784 18.0505 32.784ZM27.0579 35.872H28.0419V31.472H27.0579V33.064H26.4019V33.912H27.0579V35.872ZM26.6099 34.656C25.9379 34.768 25.3539 34.808 24.5779 34.816V34.112H26.1539V31.864H23.5539V32.688H25.1299V33.344H23.5619V35.648H24.0659C25.1539 35.648 25.8739 35.632 26.7059 35.48L26.6099 34.656ZM24.5219 37.048H28.4899V38.696H29.5459V36.208H24.5219V37.048ZM28.5459 31.32V35.904H29.5459V31.32H28.5459ZM36.5853 35.12H32.4813V34.296H36.3613V33.48H32.4813V32.704H36.5293V31.856H31.4093V35.952H36.5853V35.12ZM30.6253 36.984V37.84H37.2973V36.984H30.6253ZM42.1988 36.024H41.2548V32.904H42.1988V36.024ZM43.8868 33.992H43.1748V32.072H40.2708V36.848H43.1748V34.848H43.8868V38.352H44.8708V31.432H43.8868V33.992ZM45.3828 31.312V38.68H46.3828V31.312H45.3828ZM50.2781 31.888H49.2221V32.96C49.2221 34.392 48.6141 35.816 47.3261 36.368L47.9581 37.24C48.8381 36.824 49.4381 36.032 49.7661 35.048C50.0941 35.952 50.6621 36.68 51.5101 37.064L52.1101 36.208C50.8621 35.672 50.2781 34.328 50.2781 32.96V31.888ZM52.4701 31.312V38.704H53.5261V31.312H52.4701ZM57.6295 32.896H59.1495V32.024H55.0215V32.896H56.5575V33.304C56.5575 34.56 55.9575 35.912 54.7255 36.464L55.3255 37.304C56.1895 36.912 56.7815 36.104 57.1095 35.144C57.4375 36.032 58.0215 36.752 58.8775 37.12L59.4535 36.288C58.2215 35.776 57.6295 34.504 57.6295 33.304V32.896ZM59.8295 31.32V38.688H60.8855V31.32H59.8295Z" fill="#666666"/>
<g clip-path="url(#clip0)">
<path d="M34.9999 0.599976C28.3831 0.599976 22.9999 5.44478 22.9999 11.4C22.9999 13.4816 23.6583 15.498 24.9071 17.2416C24.6707 19.8564 24.0371 21.7976 23.1171 22.7172C22.9955 22.8388 22.9651 23.0248 23.0419 23.1784C23.1099 23.3156 23.2499 23.4 23.3999 23.4C23.4183 23.4 23.4367 23.3988 23.4555 23.396C23.6175 23.3732 27.3807 22.8316 30.1027 21.2604C31.6483 21.884 33.2947 22.2 34.9999 22.2C41.6167 22.2 46.9999 17.3552 46.9999 11.4C46.9999 5.44478 41.6167 0.599976 34.9999 0.599976ZM29.3999 13C28.5175 13 27.7999 12.2824 27.7999 11.4C27.7999 10.5176 28.5175 9.79998 29.3999 9.79998C30.2823 9.79998 30.9999 10.5176 30.9999 11.4C30.9999 12.2824 30.2823 13 29.3999 13ZM34.9999 13C34.1175 13 33.3999 12.2824 33.3999 11.4C33.3999 10.5176 34.1175 9.79998 34.9999 9.79998C35.8823 9.79998 36.5999 10.5176 36.5999 11.4C36.5999 12.2824 35.8823 13 34.9999 13ZM40.5999 13C39.7175 13 38.9999 12.2824 38.9999 11.4C38.9999 10.5176 39.7175 9.79998 40.5999 9.79998C41.4823 9.79998 42.1999 10.5176 42.1999 11.4C42.1999 12.2824 41.4823 13 40.5999 13Z" fill="#666666"/>
</g>
<defs>
<clipPath id="clip0">
<rect width="24" height="24" fill="white" transform="translate(23)"/>
</clipPath>
</defs>
</svg>
