<svg width="70" height="40" viewBox="0 0 70 40" fill="none" xmlns="http://www.w3.org/2000/svg">
<path d="M35 7.16998L26.745 13.522V22.0321H33.3781V15.7956H36.902V22.0321H43.255V13.522L35 7.16998Z" fill="#333333"/>
<path d="M43.6007 8.5843V4.23313H40.1242V5.90985L35 1.9679L23 11.1993L24.6565 13.3526L35 5.39352L45.3435 13.3526L47 11.1994L43.6007 8.5843Z" fill="#333333"/>
<path d="M37.9763 31.84H35.5203V31.264H34.4643V31.84H31.9843V32.632H37.9763V31.84ZM33.4723 37.24H36.4883V37.824H33.4723V37.24ZM32.4403 38.6H37.5283V36.464H32.4403V38.6ZM33.6563 33.864C33.6563 33.624 34.0803 33.528 34.9923 33.528C35.9123 33.528 36.3283 33.624 36.3283 33.864C36.3283 34.104 35.9123 34.208 34.9923 34.208C34.0803 34.208 33.6563 34.104 33.6563 33.864ZM35.5203 35.264V34.896C36.7683 34.824 37.4643 34.48 37.4643 33.864C37.4643 33.168 36.5763 32.816 34.9923 32.816C33.4163 32.816 32.5283 33.168 32.5283 33.864C32.5283 34.48 33.2243 34.824 34.4643 34.896V35.264H31.6563V36.08H38.3283V35.264H35.5203Z" fill="#333333"/>
</svg>
