<svg width="70" height="40" viewBox="0 0 70 40" fill="none" xmlns="http://www.w3.org/2000/svg">
<path d="M36 0C32.5107 0 29.6719 2.8388 29.6719 6.32812C29.6719 9.81745 32.5107 12.6562 36 12.6562C39.4893 12.6562 42.3281 9.81745 42.3281 6.32812C42.3281 2.8388 39.4893 0 36 0Z" fill="#666666"/>
<path d="M43.8734 16.7904C42.1409 15.0313 39.8442 14.0625 37.4062 14.0625H34.5938C32.1559 14.0625 29.8591 15.0313 28.1266 16.7904C26.4026 18.5409 25.4531 20.8515 25.4531 23.2969C25.4531 23.6852 25.7679 24 26.1562 24H45.8438C46.2321 24 46.5469 23.6852 46.5469 23.2969C46.5469 20.8515 45.5974 18.5409 43.8734 16.7904Z" fill="#666666"/>
<path d="M32.9443 32.016H31.8883V36.88H32.5283C33.6003 36.88 34.7843 36.816 36.0083 36.56L35.9043 35.696C34.8723 35.896 33.8723 35.976 32.9443 36V32.016ZM38.4643 34.096H37.4323V31.312H36.3763V38.672H37.4323V34.968H38.4643V34.096Z" fill="#666666"/>
</svg>
