<svg width="16" height="16" viewBox="0 0 16 16" fill="none" xmlns="http://www.w3.org/2000/svg">
<rect width="16" height="16" rx="6" fill="#FF4040"/>
<path d="M10.2487 6.46C10.2487 6.95333 10.0987 7.34667 9.79867 7.64C9.50534 7.93333 9.14201 8.13333 8.70867 8.24V8.27C9.28201 8.33667 9.71534 8.51 10.0087 8.79C10.3087 9.07 10.4587 9.44667 10.4587 9.92C10.4587 10.3333 10.3553 10.7067 10.1487 11.04C9.94867 11.3667 9.63534 11.6267 9.20867 11.82C8.78867 12.0067 8.24534 12.1 7.57867 12.1C6.80534 12.1 6.11867 11.97 5.51867 11.71V10.43C5.82534 10.5833 6.14534 10.7 6.47867 10.78C6.81867 10.86 7.13201 10.9 7.41867 10.9C7.95867 10.9 8.33534 10.8067 8.54867 10.62C8.76867 10.4333 8.87867 10.17 8.87867 9.83C8.87867 9.63 8.82867 9.46333 8.72867 9.33C8.62867 9.19 8.45201 9.08667 8.19867 9.02C7.95201 8.94667 7.60534 8.91 7.15867 8.91H6.61867V7.75H7.16867C7.60867 7.75 7.94201 7.71 8.16867 7.63C8.40201 7.54333 8.55867 7.43 8.63867 7.29C8.72534 7.14333 8.76867 6.97667 8.76867 6.79C8.76867 6.53667 8.68867 6.34 8.52867 6.2C8.37534 6.05333 8.11534 5.98 7.74867 5.98C7.40867 5.98 7.11201 6.04 6.85867 6.16C6.61201 6.27333 6.40201 6.38667 6.22867 6.5L5.52867 5.46C5.80867 5.26 6.13534 5.09333 6.50867 4.96C6.88867 4.82667 7.33867 4.76 7.85867 4.76C8.59201 4.76 9.17201 4.91 9.59867 5.21C10.032 5.50333 10.2487 5.92 10.2487 6.46Z" fill="white"/>
</svg>
