<svg width="12" height="12" viewBox="0 0 12 12" fill="none" xmlns="http://www.w3.org/2000/svg">
<path d="M11.8557 3.43677L8.50964 0.0907149C8.38885 -0.0301976 8.19272 -0.0301976 8.07193 0.0907149L8.05775 0.104893C7.85258 0.310004 7.73953 0.582847 7.73953 0.872963C7.73953 1.05987 7.78702 1.23923 7.87524 1.39828L4.37416 4.40302C4.10621 4.16354 3.76421 4.03248 3.40197 4.03248C3.01162 4.03248 2.64467 4.18447 2.36873 4.46047L2.34774 4.48146C2.22683 4.60231 2.22683 4.79832 2.34774 4.91917L4.35231 6.92373L2.4 8.87598C2.36093 8.91616 1.43684 9.86841 0.82931 10.6262C0.25075 11.3477 0.136338 11.4798 0.130394 11.4866C0.0229783 11.609 0.0289217 11.7935 0.143891 11.909C0.20413 11.9695 0.283563 12.0001 0.363242 12.0001C0.435864 12.0001 0.508672 11.9747 0.56724 11.9235C0.572378 11.919 0.701525 11.8068 1.42768 11.2246C2.18535 10.617 3.13761 9.69289 3.18088 9.65073L5.13003 7.70158L7.02724 9.59879C7.08767 9.65928 7.16691 9.68949 7.2461 9.68949C7.32528 9.68949 7.40459 9.65928 7.46495 9.59879L7.48594 9.5778C7.76194 9.30186 7.91393 8.93485 7.91393 8.54457C7.91393 8.18232 7.78281 7.84032 7.54339 7.57237L10.5481 4.0713C10.7072 4.15952 10.8865 4.207 11.0734 4.207C11.3636 4.207 11.6364 4.09402 11.8415 3.88878L11.8557 3.8746C11.9766 3.75363 11.9766 3.55762 11.8557 3.43677Z" fill="black"/>
</svg>
