<svg width="70" height="40" viewBox="0 0 70 40" fill="none" xmlns="http://www.w3.org/2000/svg">
<path d="M46.8535 22.4395L39.8817 15.4677C41.204 13.8351 42 11.7597 42 9.50004C42 4.26174 37.7383 0 32.5 0C27.2617 0 23 4.26174 23 9.50004C23 14.7383 27.2617 19.0001 32.5 19.0001C34.7597 19.0001 36.8351 18.204 38.4677 16.8817L45.4395 23.8536C45.6348 24.0488 45.9513 24.0488 46.1466 23.8536L46.8536 23.1466C47.0488 22.9513 47.0488 22.6347 46.8535 22.4395ZM32.5 17C28.3643 17 25 13.6358 25 9.50004C25 5.36429 28.3643 2.00002 32.5 2.00002C36.6358 2.00002 40 5.36429 40 9.50004C40 13.6358 36.6358 17 32.5 17Z" fill="#666666"/>
<path d="M28.4166 31.744V32.584H30.6566C30.4886 33.56 29.6006 34.36 28.0166 34.792L28.4326 35.608C30.5766 35.016 31.7766 33.688 31.7766 31.744H28.4166ZM30.3366 36.568H33.1046V37.776H30.3366V36.568ZM29.2966 38.6H34.1446V35.736H29.2966V38.6ZM33.0886 31.328V33.064H31.8166V33.92H33.0886V35.432H34.1446V31.328H33.0886ZM39.056 34.616C38.08 34.208 37.688 33.4 37.688 32.584V31.728H36.672V32.584C36.672 33.424 36.272 34.336 35.24 34.792L35.8 35.616C36.48 35.32 36.928 34.8 37.2 34.176C37.456 34.72 37.88 35.16 38.496 35.416L39.056 34.616ZM36.552 36.952H40.568V38.696H41.624V36.12H36.552V36.952ZM40.624 31.32V33.112H40.048V31.432H39.064V35.752H40.048V33.96H40.624V35.792H41.624V31.32H40.624Z" fill="#666666"/>
</svg>
